<svg width="108" height="82" viewBox="0 0 108 82" fill="none" xmlns="http://www.w3.org/2000/svg">
<path d="M29.9641 38.157C38.5394 38.157 44.6505 42.8273 44.6505 49.2861C44.6505 55.745 38.5394 60.5146 29.9641 60.5146H11.8279V38.157H29.9641ZM42.6792 19.3766C42.6792 24.9412 37.3566 28.8165 29.767 28.8165H11.8279V9.83735H29.767C37.3566 9.83735 42.6792 13.812 42.6792 19.3766ZM42.3835 33.3874C49.4802 31.6981 54.6057 26.0342 54.6057 18.681C54.6057 7.75063 45.3405 0 32.4283 0H0V70.352H32.9211C46.6218 70.352 56.577 62.0051 56.577 50.3792C56.577 41.8336 50.663 35.176 42.3835 33.3874Z" fill="#1A1818"/>
<path d="M58.1605 5.95481C57.765 9.80957 59.9422 12.7339 63.5698 13.1122C63.2148 16.5716 60.3276 20.566 56.5343 22.7678L61.5447 26.0874C66.5753 23.4154 70.7371 16.6568 71.4267 9.93567C71.9846 4.49948 69.5065 0.644735 65.2906 0.205068C61.565 -0.183474 58.5459 2.1989 58.1605 5.95481Z" fill="#1A1818"/>
<path d="M73.8961 72.3614C64.3352 72.3614 57.337 64.9088 57.337 54.7734C57.337 44.5386 64.3352 37.1854 73.8961 37.1854C83.457 37.1854 90.3566 44.5386 90.3566 54.7734C90.3566 65.0082 83.457 72.3614 73.8961 72.3614ZM90.4552 38.3778C86.3154 31.6208 79.6129 27.5468 71.5305 27.5468C57.0413 27.5468 46.6918 38.974 46.6918 54.7734C46.6918 70.5728 57.0413 82 71.5305 82C79.7115 82 86.414 77.8266 90.5538 71.169L90.4552 74.2494C90.4552 79.019 93.5108 82 99.4247 82C105.437 82 108 78.9196 108 74.5475V62.1266H104.944V75.4418C104.944 76.5348 104.156 77.3297 103.072 77.3297C101.987 77.3297 101.199 76.5348 101.199 75.4418V29.5341H90.4552V38.3778Z" fill="#1A1818"/>
</svg>
